<?xml version="1.0" encoding="UTF-8"?>
<svg width="237px" height="104px" viewBox="0 0 237 104" version="1.1" xmlns="http://www.w3.org/2000/svg" xmlns:xlink="http://www.w3.org/1999/xlink">
    <title>Logo White Background</title>
    <g id="Page-1" stroke="none" stroke-width="1" fill="none" fill-rule="evenodd">
        <g id="Logo-Branding" transform="translate(-2498.000000, -236.000000)">
            <g id="Logo-White-Background" transform="translate(2461.000000, 132.000000)">
                <g transform="translate(37.000000, 104.000000)">
                    <path d="M24.96,13.5 C31.8162963,13.5 37.1703704,15.2245509 41.0222222,18.6736527 C44.8740741,22.1227545 46.8,27.3730539 46.8,34.4245509 L46.8,34.4245509 L46.7474792,70.970878 L37.962355,70.9620159 L38.0177778,60.6377246 C34.6281481,67.6125749 28.5037037,71.1 19.6444444,71.1 C13.7125926,71.1 8.95555556,69.4520958 5.37333333,66.1562874 C1.79111111,62.860479 2.1032065e-12,58.7598802 2.1032065e-12,53.854491 C2.1032065e-12,48.9491018 1.9837037,45.1167665 5.95111111,42.357485 C9.91851852,39.5982036 14.8681481,38.2185629 20.8,38.2185629 C26.7318519,38.2185629 32.3922513,38.3554941 37.7848439,40.3483084 L37.7848439,40.3483084 L37.7866667,34.1946108 C37.7866667,29.2125749 36.7466667,25.648503 34.6666667,23.5023952 C32.5866667,21.3562874 29.562963,20.2832335 25.5955556,20.2832335 C21.6281481,20.2832335 18.4311111,21.0688623 16.0044444,22.6401198 C13.5777778,24.2113772 12.3644444,26.6832335 12.3644444,30.0556886 L12.3644444,30.0556886 L2.31111111,30.0556886 C2.31111111,21.6245509 6.8562963,16.4125749 15.9466667,14.4197605 C18.72,13.8065868 21.7244444,13.5 24.96,13.5 Z M22.7342478,44.5419162 C18.4286542,44.5419162 14.9354367,45.2689827 12.2545953,46.7231159 C9.573754,48.1772491 8.23333333,50.4732488 8.23333333,53.611115 C8.23333333,60.4991142 12.3764518,63.9431138 20.6626886,63.9431138 C25.3744704,63.9431138 29.4160418,62.3550473 32.7874028,59.1789144 C36.1587639,56.0027814 37.8444444,51.8891153 37.8444444,46.8379159 C32.0765737,45.3072494 27.0398415,44.5419162 22.7342478,44.5419162 Z" id="Combined-Shape" fill="#1D1E22" fill-rule="nonzero"></path>
                    <path d="M214.86,13.5 C221.716296,13.5 227.07037,15.2245509 230.922222,18.6736527 C234.774074,22.1227545 236.7,27.3730539 236.7,34.4245509 L236.7,34.4245509 L236.647479,70.970878 L227.862355,70.9620159 L227.917778,60.6377246 C224.528148,67.6125749 218.403704,71.1 209.544444,71.1 C203.612593,71.1 198.855556,69.4520958 195.273333,66.1562874 C191.691111,62.860479 189.9,58.7598802 189.9,53.854491 C189.9,48.9491018 191.883704,45.1167665 195.851111,42.357485 C199.818519,39.5982036 204.768148,38.2185629 210.7,38.2185629 C216.631852,38.2185629 222.292251,38.3554941 227.684844,40.3483084 L227.684844,40.3483084 L227.686667,34.1946108 C227.686667,29.2125749 226.646667,25.648503 224.566667,23.5023952 C222.486667,21.3562874 219.462963,20.2832335 215.495556,20.2832335 C211.528148,20.2832335 208.331111,21.0688623 205.904444,22.6401198 C203.477778,24.2113772 202.264444,26.6832335 202.264444,30.0556886 L202.264444,30.0556886 L192.211111,30.0556886 C192.211111,21.6245509 196.756296,16.4125749 205.846667,14.4197605 C208.62,13.8065868 211.624444,13.5 214.86,13.5 Z M212.634248,44.5419162 C208.328654,44.5419162 204.835437,45.2689827 202.154595,46.7231159 C199.473754,48.1772491 198.133333,50.4732488 198.133333,53.611115 C198.133333,60.4991142 202.276452,63.9431138 210.562689,63.9431138 C215.27447,63.9431138 219.316042,62.3550473 222.687403,59.1789144 C226.058764,56.0027814 227.744444,51.8891153 227.744444,46.8379159 C221.976574,45.3072494 216.939841,44.5419162 212.634248,44.5419162 Z" id="Combined-Shape" fill="#1D1E22" fill-rule="nonzero"></path>
                    <path d="M110.1375,11.7 C111.9375,11.7 113.38125,11.1681818 114.46875,10.1045455 C115.55625,9.04090909 116.1,7.62272727 116.1,5.85 C116.1,4.07727273 115.55625,2.65909091 114.46875,1.59545455 C113.38125,0.531818182 111.9375,0 110.1375,0 C108.3375,0 106.93125,0.531818182 105.91875,1.59545455 C104.90625,2.65909091 104.4,4.07727273 104.4,5.85 C104.4,7.62272727 104.90625,9.04090909 105.91875,10.1045455 C106.93125,11.1681818 108.3375,11.7 110.1375,11.7 Z" id="Path-Copy-12" fill="#1D1E22" fill-rule="nonzero"></path>
                    <path d="M76.2246057,71.0286399 C81.7343849,72.8024279 87.826183,72.1468976 94.5,69.0620489 L94.5,69.0620489 L93.2195584,62.5838668 C89.6498423,63.9720487 86.4293375,64.6661396 83.5580442,64.6661396 C78.2810726,64.6661396 75.6425868,61.8512152 75.6425868,56.2213665 L75.6425868,56.2213665 L75.6425868,22.326592 L93.1031546,22.326592 L93.1031546,15.3856826 L75.6425868,15.3856826 L75.6425868,0 L66.5630915,0 L66.5630915,15.3856826 L57.6,15.3856826 L57.6,22.326592 L66.5630915,22.326592 L66.5630915,56.3370483 C66.5630915,59.0362908 66.9899054,61.3499273 67.8435331,63.2779577 C69.4731861,67.2111397 72.266877,69.7947005 76.2246057,71.0286399 Z" id="Path-Copy-11" fill="#1D1E22" fill-rule="nonzero"></path>
                    <polygon id="Path-Copy-10" fill="#1D1E22" fill-rule="nonzero" points="114.3 71.1 114.3 16.2 105.3 16.2 105.3 71.1"></polygon>
                    <polygon id="Path-Copy-9" fill="#1D1E22" fill-rule="nonzero" points="158.029979 71.1 180 16.2 169.708779 16.2 152.942184 61.5671548 136.291221 16.2 126 16.2 147.970021 71.1"></polygon>
                    <path d="M25.2458503,81.9010255 C27.8550812,81.8932372 30.4700217,81.9295826 33.0803946,82.0178498 C34.8027942,82.0748328 36.7507867,82.1244936 38.5282402,82.2438205 L227.16,82.4001437 C227.954824,82.4019915 228.598808,83.0465088 228.599999,83.841334 L228.599999,84.2749253 C228.600773,85.0234336 228.029726,85.638556 227.299502,85.7083334 L227.160821,85.7149253 C227.160547,85.7149253 227.160273,85.7149252 227.159999,85.7141034 L39.4387815,85.6074296 C39.4345628,85.6075078 39.4303226,85.6075695 39.4260609,85.6076144 L38.846,85.606 L38.8231227,85.6065994 L38.2163703,85.5915929 C36.5189288,85.5375892 34.5433909,85.3717455 33.009597,85.3187851 C30.4517514,85.2318159 27.8927638,85.1876823 25.3349181,85.1954706 C23.4245271,85.2019608 21.5141361,85.2318159 19.6094546,85.3187851 C17.9559901,85.3914758 16.2956742,85.4940216 14.6479192,85.6900268 C13.9490792,85.7705057 13.2433878,85.8730515 12.5513992,86.0184328 C12.5251356,86.0262211 12.4931626,86.0327114 12.4680409,86.0327114 C12.9099544,86.2378029 13.3587193,86.4117413 13.8143355,86.5869777 C14.5382972,86.8634619 15.3079347,87.0685534 16.05816,87.2424918 C17.0139264,87.4683521 17.9754023,87.6435886 18.9425877,87.8045465 C21.2058244,88.1757881 23.4953246,88.4315035 25.7779735,88.6495755 C29.8739523,89.0363938 33.9836338,89.2765326 38.0933153,89.4725378 C38.4210393,89.4881144 38.7533309,89.5023929 39.0810548,89.5244597 C40.3177275,89.5893621 41.9654826,89.9761803 42.9406612,90.8939 C43.3768653,91.3092753 43.7034474,91.8414748 43.7936571,92.4904987 C43.9021372,93.2849039 43.6395012,93.9910418 43.1267902,94.5232414 C42.2795038,95.4059138 40.6705732,95.6966765 39.5743536,95.8057125 C39.5355292,95.8057125 39.5035561,95.8135008 39.4658736,95.8135008 C36.208046,95.871913 32.9456509,95.980949 29.6878233,96.1925308 C27.1299777,96.3599789 24.5652806,96.5936275 22.0199958,96.9648691 C20.2192268,97.2270748 18.3853428,97.5554808 16.6291077,98.0798921 C15.5705706,98.3940197 14.3270466,98.8314617 13.3975437,99.4869758 C13.15432,99.6622123 12.9042449,99.9166296 12.7306768,100.200902 C13.0001641,100.200902 13.2947731,100.136 13.5448482,100.062011 C14.0838228,99.9088413 14.6090947,99.6622123 15.1160963,99.3987086 C15.8400579,99.0209767 16.7056147,99.3779398 17.0390481,100.20869 C17.3724816,101.031653 17.0584603,102.015573 16.3276473,102.394603 C15.6664898,102.745076 14.9676499,103.057905 14.2631004,103.261699 C13.6476188,103.436935 13.0001641,103.545971 12.3652703,103.481069 C11.7109642,103.414868 11.0635095,103.196796 10.5439471,102.723009 C10.0186752,102.234943 9.71721486,101.578131 9.66582957,100.813581 C9.62129565,100.200902 9.74918793,99.5960118 9.9798508,99.0417455 C10.3715209,98.0941706 11.0829217,97.2270748 11.8651201,96.6805967 C13.012725,95.871913 14.442378,95.3332232 15.7372874,94.9386167 C17.6670906,94.3557933 19.6802521,93.9845516 21.6545893,93.6924909 C24.2512594,93.3134609 26.8673417,93.0733221 29.4834241,92.905874 C30.9453356,92.8075468 32.4066049,92.7333147 33.8710857,92.6749634 L35.166,92.627 L33.2891787,92.5217661 C30.6017964,92.3620958 27.9151449,92.1693617 25.2321475,91.9076753 C22.9118161,91.681815 20.5846333,91.4118211 18.2768627,91.0250028 C17.2765623,90.8575547 16.276262,90.6680397 15.2885225,90.4279009 C14.4743511,90.2305976 13.6533283,90.0047373 12.8722718,89.7061864 C11.7109642,89.2622541 9.76174878,88.4678489 8.8904826,87.4475834 C8.40974464,86.8855287 7.98610145,86.1352571 8.12769648,85.3122949 C8.30012268,84.2907313 9.24903775,83.7079079 10.0255266,83.3652233 C10.6090352,83.1030177 11.2564898,82.9355695 11.8719715,82.8044667 C12.6861429,82.6292303 13.5197265,82.5059157 14.3396074,82.4111583 C16.0261869,82.2073648 17.7310367,82.104819 19.4244676,82.0321283 C21.3599803,81.9451591 23.3023443,81.9088138 25.2458503,81.9010255 Z" id="Path-3-Copy-2" fill="#04D9C4"></path>
                </g>
            </g>
        </g>
    </g>
</svg>